<svg id="visual" viewBox="0 0 1490 900" width="1490" height="900" xmlns="http://www.w3.org/2000/svg" xmlns:xlink="http://www.w3.org/1999/xlink" version="1.1"><g stroke-width="1" stroke-linejoin="bevel"><path d="M750 447L658.9 460L733 529Z" fill="#eceeee" stroke="#eceeee"></path><path d="M658.9 460L655.9 533L733 529Z" fill="#dee0e1" stroke="#dee0e1"></path><path d="M750 447L653.9 367L658.9 460Z" fill="#dee0e1" stroke="#dee0e1"></path><path d="M658.9 460L552.8 448L655.9 533Z" fill="#f4f5f5" stroke="#f4f5f5"></path><path d="M750 447L755 353L653.9 367Z" fill="#daddde" stroke="#daddde"></path><path d="M845.1 528L842.1 443L750 447Z" fill="#e8ebeb" stroke="#e8ebeb"></path><path d="M750 447L830.1 352L755 353Z" fill="#f4f5f5" stroke="#f4f5f5"></path><path d="M742 625L845.1 528L733 529Z" fill="#f4f5f5" stroke="#f4f5f5"></path><path d="M733 529L845.1 528L750 447Z" fill="#eceeee" stroke="#eceeee"></path><path d="M655.9 533L742 625L733 529Z" fill="#e1e4e4" stroke="#e1e4e4"></path><path d="M653.9 367L552.8 448L658.9 460Z" fill="#e1e4e4" stroke="#e1e4e4"></path><path d="M655.9 533L656.9 636L742 625Z" fill="#e5e7e8" stroke="#e5e7e8"></path><path d="M552.8 448L561.8 550L655.9 533Z" fill="#f4f5f5" stroke="#f4f5f5"></path><path d="M561.8 550L656.9 636L655.9 533Z" fill="#e5e7e8" stroke="#e5e7e8"></path><path d="M842.1 443L830.1 352L750 447Z" fill="#fbfcfc" stroke="#fbfcfc"></path><path d="M641.9 272L561.8 361L653.9 367Z" fill="#f4f5f5" stroke="#f4f5f5"></path><path d="M653.9 367L561.8 361L552.8 448Z" fill="#eceeee" stroke="#eceeee"></path><path d="M742 711L829.1 636L742 625Z" fill="#daddde" stroke="#daddde"></path><path d="M742 625L829.1 636L845.1 528Z" fill="#ffffff" stroke="#ffffff"></path><path d="M828.1 275L748 277L755 353Z" fill="#f7f8f8" stroke="#f7f8f8"></path><path d="M755 353L748 277L653.9 367Z" fill="#e1e4e4" stroke="#e1e4e4"></path><path d="M748 277L641.9 272L653.9 367Z" fill="#ffffff" stroke="#ffffff"></path><path d="M453.6 622L553.8 640L561.8 550Z" fill="#f0f1f1" stroke="#f0f1f1"></path><path d="M561.8 550L553.8 640L656.9 636Z" fill="#f7f8f8" stroke="#f7f8f8"></path><path d="M656.9 636L742 711L742 625Z" fill="#ffffff" stroke="#ffffff"></path><path d="M939.3 628L929.3 529L845.1 528Z" fill="#e8ebeb" stroke="#e8ebeb"></path><path d="M845.1 528L929.3 529L842.1 443Z" fill="#eceeee" stroke="#eceeee"></path><path d="M842.1 443L936.3 371L830.1 352Z" fill="#ffffff" stroke="#ffffff"></path><path d="M657.9 731L742 711L656.9 636Z" fill="#eceeee" stroke="#eceeee"></path><path d="M929.3 529L940.3 447L842.1 443Z" fill="#e8ebeb" stroke="#e8ebeb"></path><path d="M830.1 352L828.1 275L755 353Z" fill="#e8ebeb" stroke="#e8ebeb"></path><path d="M925.3 269L828.1 275L830.1 352Z" fill="#e1e4e4" stroke="#e1e4e4"></path><path d="M748 277L657.9 190L641.9 272Z" fill="#f4f5f5" stroke="#f4f5f5"></path><path d="M459.6 454L473.6 530L552.8 448Z" fill="#e8ebeb" stroke="#e8ebeb"></path><path d="M552.8 448L473.6 530L561.8 550Z" fill="#daddde" stroke="#daddde"></path><path d="M460.6 359L552.8 448L561.8 361Z" fill="#e5e7e8" stroke="#e5e7e8"></path><path d="M460.6 359L459.6 454L552.8 448Z" fill="#eceeee" stroke="#eceeee"></path><path d="M940.3 447L936.3 371L842.1 443Z" fill="#f0f1f1" stroke="#f0f1f1"></path><path d="M548.8 718L657.9 731L656.9 636Z" fill="#f0f1f1" stroke="#f0f1f1"></path><path d="M641.9 272L559.8 273L561.8 361Z" fill="#e5e7e8" stroke="#e5e7e8"></path><path d="M742 799L847.1 708L742 711Z" fill="#e5e7e8" stroke="#e5e7e8"></path><path d="M742 711L847.1 708L829.1 636Z" fill="#e1e4e4" stroke="#e1e4e4"></path><path d="M829.1 636L939.3 628L845.1 528Z" fill="#dee0e1" stroke="#dee0e1"></path><path d="M847.1 708L939.3 628L829.1 636Z" fill="#f0f1f1" stroke="#f0f1f1"></path><path d="M929.3 529L1017.4 457L940.3 447Z" fill="#fbfcfc" stroke="#fbfcfc"></path><path d="M559.8 273L460.6 359L561.8 361Z" fill="#f7f8f8" stroke="#f7f8f8"></path><path d="M553.8 640L548.8 718L656.9 636Z" fill="#f0f1f1" stroke="#f0f1f1"></path><path d="M466.6 728L548.8 718L553.8 640Z" fill="#f0f1f1" stroke="#f0f1f1"></path><path d="M365.5 539L453.6 622L473.6 530Z" fill="#daddde" stroke="#daddde"></path><path d="M473.6 530L453.6 622L561.8 550Z" fill="#e8ebeb" stroke="#e8ebeb"></path><path d="M365.5 539L473.6 530L459.6 454Z" fill="#f0f1f1" stroke="#f0f1f1"></path><path d="M641.9 272L657.9 190L559.8 273Z" fill="#daddde" stroke="#daddde"></path><path d="M749 173L657.9 190L748 277Z" fill="#daddde" stroke="#daddde"></path><path d="M936.3 371L925.3 269L830.1 352Z" fill="#f7f8f8" stroke="#f7f8f8"></path><path d="M838.1 187L749 173L748 277Z" fill="#dee0e1" stroke="#dee0e1"></path><path d="M1031.4 538L1017.4 457L929.3 529Z" fill="#e5e7e8" stroke="#e5e7e8"></path><path d="M940.3 447L1017.4 457L936.3 371Z" fill="#e5e7e8" stroke="#e5e7e8"></path><path d="M936.3 371L1035.4 274L925.3 269Z" fill="#e8ebeb" stroke="#e8ebeb"></path><path d="M838.1 187L748 277L828.1 275Z" fill="#e1e4e4" stroke="#e1e4e4"></path><path d="M642.9 817L742 799L657.9 731Z" fill="#ffffff" stroke="#ffffff"></path><path d="M657.9 731L742 799L742 711Z" fill="#daddde" stroke="#daddde"></path><path d="M925.3 269L838.1 187L828.1 275Z" fill="#daddde" stroke="#daddde"></path><path d="M559.8 273L462.6 268L460.6 359Z" fill="#daddde" stroke="#daddde"></path><path d="M460.6 359L381.5 441L459.6 454Z" fill="#eceeee" stroke="#eceeee"></path><path d="M546.8 182L462.6 268L559.8 273Z" fill="#fbfcfc" stroke="#fbfcfc"></path><path d="M1012.4 629L1031.4 538L929.3 529Z" fill="#e1e4e4" stroke="#e1e4e4"></path><path d="M847.1 708L933.3 721L939.3 628Z" fill="#daddde" stroke="#daddde"></path><path d="M939.3 628L1012.4 629L929.3 529Z" fill="#eceeee" stroke="#eceeee"></path><path d="M919.3 817L933.3 721L847.1 708Z" fill="#e8ebeb" stroke="#e8ebeb"></path><path d="M366.5 353L381.5 441L460.6 359Z" fill="#e1e4e4" stroke="#e1e4e4"></path><path d="M933.3 721L1012.4 629L939.3 628Z" fill="#eceeee" stroke="#eceeee"></path><path d="M557.8 100L546.8 182L657.9 190Z" fill="#e8ebeb" stroke="#e8ebeb"></path><path d="M657.9 190L546.8 182L559.8 273Z" fill="#eceeee" stroke="#eceeee"></path><path d="M560.8 818L657.9 731L548.8 718Z" fill="#eceeee" stroke="#eceeee"></path><path d="M560.8 818L642.9 817L657.9 731Z" fill="#e8ebeb" stroke="#e8ebeb"></path><path d="M377.5 712L466.6 728L453.6 622Z" fill="#e8ebeb" stroke="#e8ebeb"></path><path d="M453.6 622L466.6 728L553.8 640Z" fill="#eceeee" stroke="#eceeee"></path><path d="M1128.5 441L1033.4 359L1017.4 457Z" fill="#fbfcfc" stroke="#fbfcfc"></path><path d="M1017.4 457L1033.4 359L936.3 371Z" fill="#fbfcfc" stroke="#fbfcfc"></path><path d="M925.3 269L924.3 179L838.1 187Z" fill="#eceeee" stroke="#eceeee"></path><path d="M381.5 441L365.5 539L459.6 454Z" fill="#f7f8f8" stroke="#f7f8f8"></path><path d="M740 900L839.1 815L742 799Z" fill="#ffffff" stroke="#ffffff"></path><path d="M742 799L839.1 815L847.1 708Z" fill="#f4f5f5" stroke="#f4f5f5"></path><path d="M365.5 539L373.5 625L453.6 622Z" fill="#f4f5f5" stroke="#f4f5f5"></path><path d="M462.6 268L366.5 353L460.6 359Z" fill="#f0f1f1" stroke="#f0f1f1"></path><path d="M381.5 441L276.4 438L365.5 539Z" fill="#fbfcfc" stroke="#fbfcfc"></path><path d="M373.5 259L366.5 353L462.6 268Z" fill="#daddde" stroke="#daddde"></path><path d="M476.6 814L560.8 818L548.8 718Z" fill="#ffffff" stroke="#ffffff"></path><path d="M849.1 900L919.3 817L839.1 815Z" fill="#eceeee" stroke="#eceeee"></path><path d="M1031.4 170L924.3 179L925.3 269Z" fill="#f7f8f8" stroke="#f7f8f8"></path><path d="M832.1 89L734 99L749 173Z" fill="#e5e7e8" stroke="#e5e7e8"></path><path d="M832.1 89L749 173L838.1 187Z" fill="#f0f1f1" stroke="#f0f1f1"></path><path d="M749 173L734 99L657.9 190Z" fill="#daddde" stroke="#daddde"></path><path d="M1113.5 357L1035.4 274L1033.4 359Z" fill="#dee0e1" stroke="#dee0e1"></path><path d="M1033.4 359L1035.4 274L936.3 371Z" fill="#eceeee" stroke="#eceeee"></path><path d="M476.6 89L464.6 174L546.8 182Z" fill="#eceeee" stroke="#eceeee"></path><path d="M546.8 182L464.6 174L462.6 268Z" fill="#f7f8f8" stroke="#f7f8f8"></path><path d="M1020.4 800L1023.4 717L933.3 721Z" fill="#e1e4e4" stroke="#e1e4e4"></path><path d="M933.3 721L1023.4 717L1012.4 629Z" fill="#f7f8f8" stroke="#f7f8f8"></path><path d="M1120.5 619L1113.5 539L1031.4 538Z" fill="#daddde" stroke="#daddde"></path><path d="M740 900L742 799L660.9 900Z" fill="#daddde" stroke="#daddde"></path><path d="M839.1 815L919.3 817L847.1 708Z" fill="#fbfcfc" stroke="#fbfcfc"></path><path d="M464.6 174L373.5 259L462.6 268Z" fill="#e5e7e8" stroke="#e5e7e8"></path><path d="M734 99L657.9 82L657.9 190Z" fill="#f4f5f5" stroke="#f4f5f5"></path><path d="M373.5 625L377.5 712L453.6 622Z" fill="#e8ebeb" stroke="#e8ebeb"></path><path d="M466.6 728L476.6 814L548.8 718Z" fill="#daddde" stroke="#daddde"></path><path d="M288.4 618L377.5 712L373.5 625Z" fill="#daddde" stroke="#daddde"></path><path d="M368.5 816L476.6 814L466.6 728Z" fill="#e8ebeb" stroke="#e8ebeb"></path><path d="M1120.5 619L1031.4 538L1012.4 629Z" fill="#dee0e1" stroke="#dee0e1"></path><path d="M1031.4 538L1113.5 539L1017.4 457Z" fill="#daddde" stroke="#daddde"></path><path d="M657.9 82L557.8 100L657.9 190Z" fill="#fbfcfc" stroke="#fbfcfc"></path><path d="M933.3 79L832.1 89L924.3 179Z" fill="#f4f5f5" stroke="#f4f5f5"></path><path d="M924.3 179L832.1 89L838.1 187Z" fill="#daddde" stroke="#daddde"></path><path d="M734 99L734 0L657.9 82Z" fill="#f4f5f5" stroke="#f4f5f5"></path><path d="M660.9 900L642.9 817L548.8 900Z" fill="#ffffff" stroke="#ffffff"></path><path d="M660.9 900L742 799L642.9 817Z" fill="#e8ebeb" stroke="#e8ebeb"></path><path d="M548.8 900L642.9 817L560.8 818Z" fill="#f0f1f1" stroke="#f0f1f1"></path><path d="M1113.5 539L1128.5 441L1017.4 457Z" fill="#eceeee" stroke="#eceeee"></path><path d="M1128.5 441L1113.5 357L1033.4 359Z" fill="#e1e4e4" stroke="#e1e4e4"></path><path d="M276.4 367L276.4 438L366.5 353Z" fill="#f0f1f1" stroke="#f0f1f1"></path><path d="M366.5 353L276.4 438L381.5 441Z" fill="#e5e7e8" stroke="#e5e7e8"></path><path d="M365.5 539L288.4 618L373.5 625Z" fill="#fbfcfc" stroke="#fbfcfc"></path><path d="M1112.5 721L1120.5 619L1012.4 629Z" fill="#eceeee" stroke="#eceeee"></path><path d="M1113.5 539L1204.6 450L1128.5 441Z" fill="#eceeee" stroke="#eceeee"></path><path d="M276.4 438L269.4 529L365.5 539Z" fill="#e8ebeb" stroke="#e8ebeb"></path><path d="M269.4 529L288.4 618L365.5 539Z" fill="#e1e4e4" stroke="#e1e4e4"></path><path d="M740 900L849.1 900L839.1 815Z" fill="#e5e7e8" stroke="#e5e7e8"></path><path d="M919.3 817L1020.4 800L933.3 721Z" fill="#f0f1f1" stroke="#f0f1f1"></path><path d="M1023.4 717L1112.5 721L1012.4 629Z" fill="#e1e4e4" stroke="#e1e4e4"></path><path d="M1025.4 900L1020.4 800L919.3 817Z" fill="#eceeee" stroke="#eceeee"></path><path d="M273.4 262L276.4 367L366.5 353Z" fill="#e1e4e4" stroke="#e1e4e4"></path><path d="M180.3 450L190.3 541L269.4 529Z" fill="#ffffff" stroke="#ffffff"></path><path d="M454.6 900L548.8 900L476.6 814Z" fill="#eceeee" stroke="#eceeee"></path><path d="M476.6 814L548.8 900L560.8 818Z" fill="#e5e7e8" stroke="#e5e7e8"></path><path d="M368.5 816L466.6 728L377.5 712Z" fill="#f0f1f1" stroke="#f0f1f1"></path><path d="M1119.5 261L1031.4 170L1035.4 274Z" fill="#e8ebeb" stroke="#e8ebeb"></path><path d="M1035.4 274L1031.4 170L925.3 269Z" fill="#eceeee" stroke="#eceeee"></path><path d="M551.8 0L476.6 89L557.8 100Z" fill="#ffffff" stroke="#ffffff"></path><path d="M557.8 100L476.6 89L546.8 182Z" fill="#f7f8f8" stroke="#f7f8f8"></path><path d="M464.6 174L365.5 181L373.5 259Z" fill="#f4f5f5" stroke="#f4f5f5"></path><path d="M373.5 259L273.4 262L366.5 353Z" fill="#dee0e1" stroke="#dee0e1"></path><path d="M366.5 100L365.5 181L464.6 174Z" fill="#ffffff" stroke="#ffffff"></path><path d="M1013.4 87L933.3 79L924.3 179Z" fill="#f7f8f8" stroke="#f7f8f8"></path><path d="M832.1 89L734 0L734 99Z" fill="#f4f5f5" stroke="#f4f5f5"></path><path d="M1113.5 357L1119.5 261L1035.4 274Z" fill="#f0f1f1" stroke="#f0f1f1"></path><path d="M1213.6 357L1119.5 261L1113.5 357Z" fill="#f0f1f1" stroke="#f0f1f1"></path><path d="M1020.4 800L1112.5 721L1023.4 717Z" fill="#f0f1f1" stroke="#f0f1f1"></path><path d="M849.1 900L923.3 900L919.3 817Z" fill="#f4f5f5" stroke="#f4f5f5"></path><path d="M1020.4 800L1112.5 804L1112.5 721Z" fill="#e5e7e8" stroke="#e5e7e8"></path><path d="M281.4 805L368.5 816L377.5 712Z" fill="#e1e4e4" stroke="#e1e4e4"></path><path d="M838.1 0L734 0L832.1 89Z" fill="#fbfcfc" stroke="#fbfcfc"></path><path d="M657.9 82L551.8 0L557.8 100Z" fill="#e8ebeb" stroke="#e8ebeb"></path><path d="M734 0L659.9 0L657.9 82Z" fill="#eceeee" stroke="#eceeee"></path><path d="M365.5 181L273.4 262L373.5 259Z" fill="#dee0e1" stroke="#dee0e1"></path><path d="M180.3 450L269.4 529L276.4 438Z" fill="#e5e7e8" stroke="#e5e7e8"></path><path d="M368.5 816L454.6 900L476.6 814Z" fill="#f4f5f5" stroke="#f4f5f5"></path><path d="M1218.6 551L1204.6 450L1113.5 539Z" fill="#f7f8f8" stroke="#f7f8f8"></path><path d="M1128.5 441L1213.6 357L1113.5 357Z" fill="#dee0e1" stroke="#dee0e1"></path><path d="M1218.6 551L1113.5 539L1120.5 619Z" fill="#e8ebeb" stroke="#e8ebeb"></path><path d="M933.3 79L838.1 0L832.1 89Z" fill="#eceeee" stroke="#eceeee"></path><path d="M1113.5 81L1013.4 87L1031.4 170Z" fill="#daddde" stroke="#daddde"></path><path d="M1031.4 170L1013.4 87L924.3 179Z" fill="#daddde" stroke="#daddde"></path><path d="M933.3 79L920.3 0L838.1 0Z" fill="#fbfcfc" stroke="#fbfcfc"></path><path d="M288.4 618L270.4 730L377.5 712Z" fill="#f0f1f1" stroke="#f0f1f1"></path><path d="M368.5 816L367.5 900L454.6 900Z" fill="#eceeee" stroke="#eceeee"></path><path d="M189.3 630L270.4 730L288.4 618Z" fill="#f0f1f1" stroke="#f0f1f1"></path><path d="M659.9 0L551.8 0L657.9 82Z" fill="#daddde" stroke="#daddde"></path><path d="M476.6 89L366.5 100L464.6 174Z" fill="#f4f5f5" stroke="#f4f5f5"></path><path d="M365.5 181L274.4 174L273.4 262Z" fill="#ffffff" stroke="#ffffff"></path><path d="M1220.6 273L1124.5 186L1119.5 261Z" fill="#fbfcfc" stroke="#fbfcfc"></path><path d="M1119.5 261L1124.5 186L1031.4 170Z" fill="#e8ebeb" stroke="#e8ebeb"></path><path d="M364.5 0L366.5 100L476.6 89Z" fill="#e5e7e8" stroke="#e5e7e8"></path><path d="M1210.6 623L1218.6 551L1120.5 619Z" fill="#e5e7e8" stroke="#e5e7e8"></path><path d="M1025.4 900L1112.5 804L1020.4 800Z" fill="#fbfcfc" stroke="#fbfcfc"></path><path d="M1201.6 716L1210.6 623L1120.5 619Z" fill="#e5e7e8" stroke="#e5e7e8"></path><path d="M1291.8 456L1213.6 357L1204.6 450Z" fill="#ffffff" stroke="#ffffff"></path><path d="M1204.6 450L1213.6 357L1128.5 441Z" fill="#eceeee" stroke="#eceeee"></path><path d="M180.3 450L276.4 438L276.4 367Z" fill="#fbfcfc" stroke="#fbfcfc"></path><path d="M269.4 529L190.3 541L288.4 618Z" fill="#eceeee" stroke="#eceeee"></path><path d="M1201.6 716L1120.5 619L1112.5 721Z" fill="#f0f1f1" stroke="#f0f1f1"></path><path d="M923.3 900L1025.4 900L919.3 817Z" fill="#eceeee" stroke="#eceeee"></path><path d="M1022.4 0L933.3 79L1013.4 87Z" fill="#e8ebeb" stroke="#e8ebeb"></path><path d="M1022.4 0L920.3 0L933.3 79Z" fill="#dee0e1" stroke="#dee0e1"></path><path d="M175.3 359L180.3 450L276.4 367Z" fill="#eceeee" stroke="#eceeee"></path><path d="M366.5 100L274.4 174L365.5 181Z" fill="#e5e7e8" stroke="#e5e7e8"></path><path d="M197.3 263L175.3 359L276.4 367Z" fill="#e5e7e8" stroke="#e5e7e8"></path><path d="M551.8 0L476.6 0L476.6 89Z" fill="#e8ebeb" stroke="#e8ebeb"></path><path d="M366.5 100L279.4 99L274.4 174Z" fill="#daddde" stroke="#daddde"></path><path d="M181.3 810L281.4 805L270.4 730Z" fill="#daddde" stroke="#daddde"></path><path d="M270.4 730L281.4 805L377.5 712Z" fill="#dee0e1" stroke="#dee0e1"></path><path d="M272.4 900L367.5 900L368.5 816Z" fill="#e5e7e8" stroke="#e5e7e8"></path><path d="M174.3 710L189.3 630L102.1 633Z" fill="#f7f8f8" stroke="#f7f8f8"></path><path d="M190.3 541L189.3 630L288.4 618Z" fill="#fbfcfc" stroke="#fbfcfc"></path><path d="M1210.6 801L1201.6 716L1112.5 804Z" fill="#eceeee" stroke="#eceeee"></path><path d="M1112.5 804L1201.6 716L1112.5 721Z" fill="#ffffff" stroke="#ffffff"></path><path d="M1296.8 539L1291.8 456L1218.6 551Z" fill="#e5e7e8" stroke="#e5e7e8"></path><path d="M197.3 263L276.4 367L273.4 262Z" fill="#daddde" stroke="#daddde"></path><path d="M100.1 542L189.3 630L190.3 541Z" fill="#e1e4e4" stroke="#e1e4e4"></path><path d="M1213.6 357L1220.6 273L1119.5 261Z" fill="#f4f5f5" stroke="#f4f5f5"></path><path d="M1124.5 186L1113.5 81L1031.4 170Z" fill="#e1e4e4" stroke="#e1e4e4"></path><path d="M1301.8 351L1220.6 273L1213.6 357Z" fill="#f0f1f1" stroke="#f0f1f1"></path><path d="M274.4 174L197.3 263L273.4 262Z" fill="#ffffff" stroke="#ffffff"></path><path d="M1217.6 86L1113.5 81L1124.5 186Z" fill="#f0f1f1" stroke="#f0f1f1"></path><path d="M364.5 0L279.4 99L366.5 100Z" fill="#f7f8f8" stroke="#f7f8f8"></path><path d="M274.4 174L194.3 172L197.3 263Z" fill="#e5e7e8" stroke="#e5e7e8"></path><path d="M1113.5 81L1022.4 0L1013.4 87Z" fill="#ffffff" stroke="#ffffff"></path><path d="M189.3 630L174.3 710L270.4 730Z" fill="#eceeee" stroke="#eceeee"></path><path d="M281.4 805L272.4 900L368.5 816Z" fill="#f4f5f5" stroke="#f4f5f5"></path><path d="M100.1 542L190.3 541L180.3 450Z" fill="#ffffff" stroke="#ffffff"></path><path d="M1025.4 900L1112.5 900L1112.5 804Z" fill="#e5e7e8" stroke="#e5e7e8"></path><path d="M1296.8 539L1218.6 551L1300.8 620Z" fill="#e8ebeb" stroke="#e8ebeb"></path><path d="M1218.6 551L1291.8 456L1204.6 450Z" fill="#fbfcfc" stroke="#fbfcfc"></path><path d="M1300.8 620L1210.6 623L1305.8 721Z" fill="#e5e7e8" stroke="#e5e7e8"></path><path d="M1300.8 620L1218.6 551L1210.6 623Z" fill="#e5e7e8" stroke="#e5e7e8"></path><path d="M476.6 0L364.5 0L476.6 89Z" fill="#ffffff" stroke="#ffffff"></path><path d="M1203.6 900L1210.6 801L1112.5 804Z" fill="#f4f5f5" stroke="#f4f5f5"></path><path d="M1220.6 273L1221.6 176L1124.5 186Z" fill="#f4f5f5" stroke="#f4f5f5"></path><path d="M1113.5 81L1127.5 0L1022.4 0Z" fill="#f7f8f8" stroke="#f7f8f8"></path><path d="M1296.8 260L1221.6 176L1220.6 273Z" fill="#e1e4e4" stroke="#e1e4e4"></path><path d="M185.3 95L194.3 172L279.4 99Z" fill="#daddde" stroke="#daddde"></path><path d="M279.4 99L194.3 172L274.4 174Z" fill="#e5e7e8" stroke="#e5e7e8"></path><path d="M95.1 367L180.3 450L175.3 359Z" fill="#eceeee" stroke="#eceeee"></path><path d="M197.3 900L272.4 900L281.4 805Z" fill="#e5e7e8" stroke="#e5e7e8"></path><path d="M1384.9 460L1301.8 351L1291.8 456Z" fill="#f0f1f1" stroke="#f0f1f1"></path><path d="M1291.8 456L1301.8 351L1213.6 357Z" fill="#daddde" stroke="#daddde"></path><path d="M1305.8 721L1210.6 623L1201.6 716Z" fill="#f7f8f8" stroke="#f7f8f8"></path><path d="M1296.8 539L1384.9 460L1291.8 456Z" fill="#e1e4e4" stroke="#e1e4e4"></path><path d="M93.1 456L180.3 450L95.1 367Z" fill="#daddde" stroke="#daddde"></path><path d="M93.1 456L100.1 542L180.3 450Z" fill="#e8ebeb" stroke="#e8ebeb"></path><path d="M95.1 367L175.3 359L104.1 279Z" fill="#e8ebeb" stroke="#e8ebeb"></path><path d="M94.1 718L181.3 810L174.3 710Z" fill="#dee0e1" stroke="#dee0e1"></path><path d="M174.3 710L181.3 810L270.4 730Z" fill="#f7f8f8" stroke="#f7f8f8"></path><path d="M104.1 279L175.3 359L197.3 263Z" fill="#ffffff" stroke="#ffffff"></path><path d="M94.1 718L102.1 633L0 716Z" fill="#f4f5f5" stroke="#f4f5f5"></path><path d="M100.1 542L102.1 633L189.3 630Z" fill="#daddde" stroke="#daddde"></path><path d="M1301.8 351L1296.8 260L1220.6 273Z" fill="#fbfcfc" stroke="#fbfcfc"></path><path d="M92.1 177L104.1 279L197.3 263Z" fill="#f4f5f5" stroke="#f4f5f5"></path><path d="M1217.6 86L1124.5 186L1221.6 176Z" fill="#dee0e1" stroke="#dee0e1"></path><path d="M1198.6 0L1127.5 0L1113.5 81Z" fill="#dee0e1" stroke="#dee0e1"></path><path d="M1308.8 811L1305.8 721L1210.6 801Z" fill="#f0f1f1" stroke="#f0f1f1"></path><path d="M1210.6 801L1305.8 721L1201.6 716Z" fill="#f0f1f1" stroke="#f0f1f1"></path><path d="M1407.9 533L1384.9 460L1296.8 539Z" fill="#e8ebeb" stroke="#e8ebeb"></path><path d="M1295.8 83L1217.6 86L1221.6 176Z" fill="#fbfcfc" stroke="#fbfcfc"></path><path d="M1112.5 900L1203.6 900L1112.5 804Z" fill="#dee0e1" stroke="#dee0e1"></path><path d="M270.4 0L185.3 95L279.4 99Z" fill="#ffffff" stroke="#ffffff"></path><path d="M194.3 172L92.1 177L197.3 263Z" fill="#eceeee" stroke="#eceeee"></path><path d="M364.5 0L270.4 0L279.4 99Z" fill="#f4f5f5" stroke="#f4f5f5"></path><path d="M0 620L102.1 633L100.1 542Z" fill="#ffffff" stroke="#ffffff"></path><path d="M102.1 633L94.1 718L174.3 710Z" fill="#eceeee" stroke="#eceeee"></path><path d="M89.1 900L197.3 900L181.3 810Z" fill="#dee0e1" stroke="#dee0e1"></path><path d="M181.3 810L197.3 900L281.4 805Z" fill="#f4f5f5" stroke="#f4f5f5"></path><path d="M1296.8 260L1306.8 184L1221.6 176Z" fill="#ffffff" stroke="#ffffff"></path><path d="M1399.9 272L1306.8 184L1296.8 260Z" fill="#f4f5f5" stroke="#f4f5f5"></path><path d="M1399.9 272L1296.8 260L1301.8 351Z" fill="#e8ebeb" stroke="#e8ebeb"></path><path d="M1393.9 620L1296.8 539L1300.8 620Z" fill="#dee0e1" stroke="#dee0e1"></path><path d="M1305.8 900L1308.8 811L1210.6 801Z" fill="#dee0e1" stroke="#dee0e1"></path><path d="M1305.8 721L1393.9 620L1300.8 620Z" fill="#f7f8f8" stroke="#f7f8f8"></path><path d="M1295.8 0L1198.6 0L1217.6 86Z" fill="#dee0e1" stroke="#dee0e1"></path><path d="M1217.6 86L1198.6 0L1113.5 81Z" fill="#f7f8f8" stroke="#f7f8f8"></path><path d="M94.1 84L92.1 177L185.3 95Z" fill="#dee0e1" stroke="#dee0e1"></path><path d="M185.3 95L92.1 177L194.3 172Z" fill="#ffffff" stroke="#ffffff"></path><path d="M0 358L0 461L95.1 367Z" fill="#f4f5f5" stroke="#f4f5f5"></path><path d="M95.1 367L0 461L93.1 456Z" fill="#eceeee" stroke="#eceeee"></path><path d="M1401.9 727L1393.9 620L1305.8 721Z" fill="#eceeee" stroke="#eceeee"></path><path d="M1393.9 620L1407.9 533L1296.8 539Z" fill="#e8ebeb" stroke="#e8ebeb"></path><path d="M1384.9 460L1403.9 371L1301.8 351Z" fill="#eceeee" stroke="#eceeee"></path><path d="M1490 443L1403.9 371L1384.9 460Z" fill="#dee0e1" stroke="#dee0e1"></path><path d="M94.1 718L88.1 816L181.3 810Z" fill="#fbfcfc" stroke="#fbfcfc"></path><path d="M0 716L88.1 816L94.1 718Z" fill="#f4f5f5" stroke="#f4f5f5"></path><path d="M0 461L100.1 542L93.1 456Z" fill="#ffffff" stroke="#ffffff"></path><path d="M0 358L95.1 367L104.1 279Z" fill="#eceeee" stroke="#eceeee"></path><path d="M1390.9 81L1295.8 83L1306.8 184Z" fill="#f4f5f5" stroke="#f4f5f5"></path><path d="M1306.8 184L1295.8 83L1221.6 176Z" fill="#f0f1f1" stroke="#f0f1f1"></path><path d="M0 461L0 551L100.1 542Z" fill="#ffffff" stroke="#ffffff"></path><path d="M270.4 0L175.3 0L185.3 95Z" fill="#eceeee" stroke="#eceeee"></path><path d="M0 277L0 358L104.1 279Z" fill="#f4f5f5" stroke="#f4f5f5"></path><path d="M0 277L104.1 279L0 190Z" fill="#f0f1f1" stroke="#f0f1f1"></path><path d="M0 551L0 620L100.1 542Z" fill="#e5e7e8" stroke="#e5e7e8"></path><path d="M1403.9 371L1399.9 272L1301.8 351Z" fill="#ffffff" stroke="#ffffff"></path><path d="M1203.6 900L1305.8 900L1210.6 801Z" fill="#f4f5f5" stroke="#f4f5f5"></path><path d="M1308.8 811L1401.9 727L1305.8 721Z" fill="#e1e4e4" stroke="#e1e4e4"></path><path d="M175.3 0L94.1 84L185.3 95Z" fill="#fbfcfc" stroke="#fbfcfc"></path><path d="M1490 547L1490 443L1407.9 533Z" fill="#ffffff" stroke="#ffffff"></path><path d="M1403.9 821L1401.9 727L1308.8 811Z" fill="#eceeee" stroke="#eceeee"></path><path d="M0 190L104.1 279L92.1 177Z" fill="#f4f5f5" stroke="#f4f5f5"></path><path d="M0 620L0 716L102.1 633Z" fill="#daddde" stroke="#daddde"></path><path d="M0 820L89.1 900L88.1 816Z" fill="#ffffff" stroke="#ffffff"></path><path d="M88.1 816L89.1 900L181.3 810Z" fill="#ffffff" stroke="#ffffff"></path><path d="M1390.9 81L1295.8 0L1295.8 83Z" fill="#fbfcfc" stroke="#fbfcfc"></path><path d="M1295.8 83L1295.8 0L1217.6 86Z" fill="#ffffff" stroke="#ffffff"></path><path d="M1399.9 272L1404.9 176L1306.8 184Z" fill="#ffffff" stroke="#ffffff"></path><path d="M1490 278L1404.9 176L1399.9 272Z" fill="#f7f8f8" stroke="#f7f8f8"></path><path d="M1490 278L1399.9 272L1403.9 371Z" fill="#f7f8f8" stroke="#f7f8f8"></path><path d="M0 86L0 190L92.1 177Z" fill="#fbfcfc" stroke="#fbfcfc"></path><path d="M175.3 0L103.1 0L94.1 84Z" fill="#ffffff" stroke="#ffffff"></path><path d="M94.1 84L0 86L92.1 177Z" fill="#ffffff" stroke="#ffffff"></path><path d="M1305.8 900L1403.9 821L1308.8 811Z" fill="#f7f8f8" stroke="#f7f8f8"></path><path d="M1490 547L1407.9 533L1393.9 620Z" fill="#dee0e1" stroke="#dee0e1"></path><path d="M1490 547L1393.9 620L1490 628Z" fill="#e1e4e4" stroke="#e1e4e4"></path><path d="M1407.9 533L1490 443L1384.9 460Z" fill="#f7f8f8" stroke="#f7f8f8"></path><path d="M1490 628L1393.9 620L1490 710Z" fill="#fbfcfc" stroke="#fbfcfc"></path><path d="M0 716L0 820L88.1 816Z" fill="#e1e4e4" stroke="#e1e4e4"></path><path d="M1490 443L1490 364L1403.9 371Z" fill="#f4f5f5" stroke="#f4f5f5"></path><path d="M1490 89L1390.9 81L1404.9 176Z" fill="#fbfcfc" stroke="#fbfcfc"></path><path d="M1404.9 176L1390.9 81L1306.8 184Z" fill="#ffffff" stroke="#ffffff"></path><path d="M1490 710L1393.9 620L1401.9 727Z" fill="#fbfcfc" stroke="#fbfcfc"></path><path d="M1490 364L1490 278L1403.9 371Z" fill="#ffffff" stroke="#ffffff"></path><path d="M0 0L0 86L94.1 84Z" fill="#e1e4e4" stroke="#e1e4e4"></path><path d="M1305.8 900L1403.9 900L1403.9 821Z" fill="#dee0e1" stroke="#dee0e1"></path><path d="M1490 805L1490 710L1401.9 727Z" fill="#ffffff" stroke="#ffffff"></path><path d="M1490 805L1401.9 727L1403.9 821Z" fill="#e5e7e8" stroke="#e5e7e8"></path><path d="M0 820L0 900L89.1 900Z" fill="#e8ebeb" stroke="#e8ebeb"></path><path d="M1490 0L1389.9 0L1390.9 81Z" fill="#dee0e1" stroke="#dee0e1"></path><path d="M1390.9 81L1389.9 0L1295.8 0Z" fill="#fbfcfc" stroke="#fbfcfc"></path><path d="M1490 278L1490 169L1404.9 176Z" fill="#e5e7e8" stroke="#e5e7e8"></path><path d="M1490 900L1490 805L1403.9 821Z" fill="#dee0e1" stroke="#dee0e1"></path><path d="M103.1 0L0 0L94.1 84Z" fill="#eceeee" stroke="#eceeee"></path><path d="M1490 169L1490 89L1404.9 176Z" fill="#e1e4e4" stroke="#e1e4e4"></path><path d="M1403.9 900L1490 900L1403.9 821Z" fill="#fbfcfc" stroke="#fbfcfc"></path><path d="M1490 89L1490 0L1390.9 81Z" fill="#f4f5f5" stroke="#f4f5f5"></path></g></svg>